G04 #@! TF.FileFunction,Paste,Top*
%FSLAX46Y46*%
G04 Gerber Fmt 4.6, Leading zero omitted, Abs format (unit mm)*
G04 Created by KiCad (PCBNEW 4.0.4-stable) date Saturday, May 13, 2017 'PMt' 04:56:53 PM*
%MOMM*%
%LPD*%
G01*
G04 APERTURE LIST*
%ADD10C,0.100000*%
%ADD11C,1.000000*%
%ADD12R,0.300000X0.700000*%
%ADD13R,0.700000X0.300000*%
%ADD14R,2.500000X2.500000*%
%ADD15R,0.350000X0.850000*%
%ADD16R,0.850000X0.350000*%
%ADD17R,2.700000X2.700000*%
%ADD18R,0.350000X0.450000*%
%ADD19R,0.850000X1.100000*%
%ADD20R,0.750000X1.100000*%
%ADD21R,1.170000X1.800000*%
%ADD22R,1.550000X1.350000*%
%ADD23R,1.900000X1.350000*%
%ADD24R,1.200000X1.000000*%
%ADD25R,4.600000X4.500000*%
%ADD26R,2.000000X0.350000*%
%ADD27R,0.450000X0.300000*%
%ADD28R,1.700000X2.500000*%
%ADD29R,1.000000X0.250000*%
%ADD30R,0.800000X0.500000*%
%ADD31R,0.800000X0.400000*%
%ADD32R,0.400000X0.600000*%
%ADD33R,0.700000X1.300000*%
%ADD34R,1.300000X0.700000*%
%ADD35R,0.600000X0.400000*%
%ADD36R,1.000000X0.800000*%
%ADD37R,0.300000X1.200000*%
%ADD38R,2.400000X2.400000*%
%ADD39R,0.400000X1.650000*%
%ADD40R,1.430000X2.500000*%
%ADD41R,2.500000X1.000000*%
%ADD42R,3.600000X1.500000*%
%ADD43R,1.500000X3.200000*%
%ADD44R,3.200000X1.500000*%
%ADD45R,2.159000X1.778000*%
%ADD46R,1.200000X0.900000*%
%ADD47R,1.000000X1.250000*%
%ADD48R,0.500000X0.600000*%
%ADD49R,1.250000X1.000000*%
%ADD50R,1.950000X2.500000*%
%ADD51R,0.800000X0.750000*%
%ADD52R,0.600000X0.500000*%
%ADD53R,0.750000X0.800000*%
%ADD54R,1.000000X1.600000*%
%ADD55R,1.600000X1.000000*%
%ADD56R,1.600000X3.400000*%
%ADD57R,1.000000X3.500000*%
%ADD58R,1.600000X5.700000*%
G04 APERTURE END LIST*
D10*
D11*
X201927460Y-127726440D03*
X169346880Y-92123260D03*
X165536880Y-92123260D03*
X95567500Y-86324440D03*
X109761020Y-86324440D03*
X154106880Y-92123260D03*
D12*
X200456800Y-99716900D03*
X199956800Y-99716900D03*
X199456800Y-99716900D03*
X200956800Y-99716900D03*
X201456800Y-99716900D03*
D13*
X202421800Y-97751900D03*
X202421800Y-97251900D03*
X202421800Y-96751900D03*
X202421800Y-98251900D03*
X202421800Y-98751900D03*
X198491800Y-98751900D03*
X198491800Y-98251900D03*
X198491800Y-97751900D03*
X198491800Y-97251900D03*
X198491800Y-96751900D03*
D12*
X201456800Y-95786900D03*
X200956800Y-95786900D03*
X200456800Y-95786900D03*
X199956800Y-95786900D03*
X199456800Y-95786900D03*
D14*
X200456800Y-97751900D03*
D15*
X213028800Y-107097560D03*
X213678800Y-107097560D03*
X214328800Y-107097560D03*
X212378800Y-107097560D03*
X212378800Y-111047560D03*
X213028800Y-111047560D03*
X213678800Y-111047560D03*
X214328800Y-111047560D03*
D16*
X211378800Y-108097560D03*
X211378800Y-108747560D03*
X211378800Y-109397560D03*
X211378800Y-110047560D03*
X215328800Y-108097560D03*
X215328800Y-108747560D03*
X215328800Y-109397560D03*
X215328800Y-110047560D03*
D17*
X213353800Y-109072560D03*
D18*
X182285600Y-116617500D03*
X184185600Y-116617500D03*
X184185600Y-118967500D03*
X183235600Y-116617500D03*
X182285600Y-118967500D03*
D19*
X187157900Y-142417800D03*
X186057900Y-142417800D03*
X184957900Y-142417800D03*
X183857900Y-142417800D03*
X182757900Y-142417800D03*
X181657900Y-142417800D03*
X180557900Y-142417800D03*
D20*
X179507900Y-142417800D03*
D21*
X178297900Y-142067800D03*
D22*
X189617900Y-142292800D03*
D23*
X180322900Y-131592800D03*
X186292900Y-131592800D03*
D24*
X189792900Y-136267800D03*
X189792900Y-132567800D03*
D25*
X107888000Y-74550000D03*
X107888000Y-141350000D03*
D26*
X123988000Y-139600000D03*
X123988000Y-139000000D03*
X123988000Y-138400000D03*
X123988000Y-137800000D03*
X123988000Y-137200000D03*
X123988000Y-136600000D03*
X123988000Y-136000000D03*
X123988000Y-135400000D03*
X123988000Y-134800000D03*
X123988000Y-134200000D03*
X123988000Y-133600000D03*
X123988000Y-133000000D03*
X123988000Y-132400000D03*
X123988000Y-131800000D03*
X123988000Y-131200000D03*
X123988000Y-130600000D03*
X123988000Y-130000000D03*
X123988000Y-129400000D03*
X123988000Y-128800000D03*
X123988000Y-128200000D03*
X123988000Y-124000000D03*
X123988000Y-123400000D03*
X123988000Y-122800000D03*
X123988000Y-122200000D03*
X123988000Y-121600000D03*
X123988000Y-121000000D03*
X123988000Y-120400000D03*
X123988000Y-119800000D03*
X123988000Y-119200000D03*
X123988000Y-118600000D03*
X123988000Y-118000000D03*
X123988000Y-117400000D03*
X123988000Y-116800000D03*
X123988000Y-116200000D03*
X123988000Y-115600000D03*
X123988000Y-115000000D03*
X123988000Y-114400000D03*
X123988000Y-113800000D03*
X123988000Y-113200000D03*
X123988000Y-112600000D03*
X123988000Y-112000000D03*
X123988000Y-111400000D03*
X123988000Y-110800000D03*
X123988000Y-110200000D03*
X123988000Y-109600000D03*
X123988000Y-109000000D03*
X123988000Y-108400000D03*
X123988000Y-107800000D03*
X123988000Y-107200000D03*
X123988000Y-106600000D03*
X123988000Y-106000000D03*
X123988000Y-105400000D03*
X123988000Y-104800000D03*
X123988000Y-104200000D03*
X123988000Y-103600000D03*
X123988000Y-103000000D03*
X123988000Y-102400000D03*
X123988000Y-101800000D03*
X123988000Y-101200000D03*
X123988000Y-100600000D03*
X123988000Y-100000000D03*
X123988000Y-99400000D03*
X123988000Y-98800000D03*
X123988000Y-98200000D03*
X123988000Y-97600000D03*
X123988000Y-97000000D03*
X123988000Y-96400000D03*
X123988000Y-95800000D03*
X123988000Y-95200000D03*
X123988000Y-94600000D03*
X123988000Y-94000000D03*
X123988000Y-93400000D03*
X123988000Y-92800000D03*
X123988000Y-92200000D03*
X123988000Y-91600000D03*
X123988000Y-91000000D03*
X123988000Y-90400000D03*
X123988000Y-89800000D03*
X123988000Y-89200000D03*
X123988000Y-88600000D03*
X123988000Y-88000000D03*
X123988000Y-87400000D03*
X123988000Y-86800000D03*
X123988000Y-86200000D03*
X123988000Y-85600000D03*
X123988000Y-85000000D03*
X123988000Y-84400000D03*
X123988000Y-83800000D03*
X123988000Y-83200000D03*
X123988000Y-82600000D03*
X123988000Y-82000000D03*
X123988000Y-81400000D03*
X123988000Y-80800000D03*
X123988000Y-80200000D03*
X123988000Y-79600000D03*
X123988000Y-79000000D03*
X123988000Y-78400000D03*
X123988000Y-77800000D03*
X123988000Y-77200000D03*
X123988000Y-76600000D03*
X115788000Y-139300000D03*
X115788000Y-138700000D03*
X115788000Y-138100000D03*
X115788000Y-137500000D03*
X115788000Y-136900000D03*
X115788000Y-136300000D03*
X115788000Y-135700000D03*
X115788000Y-135100000D03*
X115788000Y-134500000D03*
X115788000Y-133900000D03*
X115788000Y-133300000D03*
X115788000Y-132700000D03*
X115788000Y-132100000D03*
X115788000Y-131500000D03*
X115788000Y-130900000D03*
X115788000Y-130300000D03*
X115788000Y-129700000D03*
X115788000Y-129100000D03*
X115788000Y-128500000D03*
X115788000Y-127900000D03*
X115788000Y-123700000D03*
X115788000Y-123100000D03*
X115788000Y-122500000D03*
X115788000Y-121900000D03*
X115788000Y-121300000D03*
X115788000Y-120700000D03*
X115788000Y-120100000D03*
X115788000Y-119500000D03*
X115788000Y-118900000D03*
X115788000Y-118300000D03*
X115788000Y-117700000D03*
X115788000Y-117100000D03*
X115788000Y-116500000D03*
X115788000Y-115900000D03*
X115788000Y-115300000D03*
X115788000Y-114700000D03*
X115788000Y-114100000D03*
X115788000Y-113500000D03*
X115788000Y-112900000D03*
X115788000Y-112300000D03*
X115788000Y-111700000D03*
X115788000Y-111100000D03*
X115788000Y-110500000D03*
X115788000Y-109900000D03*
X115788000Y-109300000D03*
X115788000Y-108700000D03*
X115788000Y-108100000D03*
X115788000Y-107500000D03*
X115788000Y-106900000D03*
X115788000Y-106300000D03*
X115788000Y-105700000D03*
X115788000Y-105100000D03*
X115788000Y-104500000D03*
X115788000Y-103900000D03*
X115788000Y-103300000D03*
X115788000Y-102700000D03*
X115788000Y-102100000D03*
X115788000Y-101500000D03*
X115788000Y-100900000D03*
X115788000Y-100300000D03*
X115788000Y-99700000D03*
X115788000Y-99100000D03*
X115788000Y-98500000D03*
X115788000Y-97900000D03*
X115788000Y-97300000D03*
X115788000Y-96700000D03*
X115788000Y-96100000D03*
X115788000Y-95500000D03*
X115788000Y-94900000D03*
X115788000Y-94300000D03*
X115788000Y-93700000D03*
X115788000Y-93100000D03*
X115788000Y-92500000D03*
X115788000Y-91900000D03*
X115788000Y-91300000D03*
X115788000Y-90700000D03*
X115788000Y-90100000D03*
X115788000Y-89500000D03*
X115788000Y-88900000D03*
X115788000Y-88300000D03*
X115788000Y-87700000D03*
X115788000Y-87100000D03*
X115788000Y-86500000D03*
X115788000Y-85900000D03*
X115788000Y-85300000D03*
X115788000Y-84700000D03*
X115788000Y-84100000D03*
X115788000Y-83500000D03*
X115788000Y-82900000D03*
X115788000Y-82300000D03*
X115788000Y-81700000D03*
X115788000Y-81100000D03*
X115788000Y-80500000D03*
X115788000Y-79900000D03*
X115788000Y-79300000D03*
X115788000Y-78700000D03*
X115788000Y-78100000D03*
X115788000Y-77500000D03*
X115788000Y-76900000D03*
X115788000Y-76300000D03*
D27*
X69457800Y-90919300D03*
X69457800Y-91569300D03*
X69457800Y-90269300D03*
X71232800Y-90269300D03*
X71232800Y-91569300D03*
D28*
X72740520Y-104160320D03*
D29*
X71040520Y-103035320D03*
X71040520Y-103485320D03*
X71040520Y-103935320D03*
X71040520Y-104385320D03*
X71040520Y-104835320D03*
X71040520Y-105285320D03*
X74440520Y-105285320D03*
X74440520Y-104835320D03*
X74440520Y-104385320D03*
X74440520Y-103935320D03*
X74440520Y-103485320D03*
X74440520Y-103035320D03*
D30*
X130440000Y-138944200D03*
D31*
X130440000Y-137344200D03*
X130440000Y-138144200D03*
D30*
X130440000Y-136544200D03*
D31*
X128640000Y-138144200D03*
D30*
X128640000Y-138944200D03*
D31*
X128640000Y-137344200D03*
D30*
X128640000Y-136544200D03*
X130440000Y-131756000D03*
D31*
X130440000Y-130156000D03*
X130440000Y-130956000D03*
D30*
X130440000Y-129356000D03*
D31*
X128640000Y-130956000D03*
D30*
X128640000Y-131756000D03*
D31*
X128640000Y-130156000D03*
D30*
X128640000Y-129356000D03*
X130440000Y-135350100D03*
D31*
X130440000Y-133750100D03*
X130440000Y-134550100D03*
D30*
X130440000Y-132950100D03*
D31*
X128640000Y-134550100D03*
D30*
X128640000Y-135350100D03*
D31*
X128640000Y-133750100D03*
D30*
X128640000Y-132950100D03*
X130440000Y-119144900D03*
D31*
X130440000Y-117544900D03*
X130440000Y-118344900D03*
D30*
X130440000Y-116744900D03*
D31*
X128640000Y-118344900D03*
D30*
X128640000Y-119144900D03*
D31*
X128640000Y-117544900D03*
D30*
X128640000Y-116744900D03*
X130440000Y-122726300D03*
D31*
X130440000Y-121126300D03*
X130440000Y-121926300D03*
D30*
X130440000Y-120326300D03*
D31*
X128640000Y-121926300D03*
D30*
X128640000Y-122726300D03*
D31*
X128640000Y-121126300D03*
D30*
X128640000Y-120326300D03*
X130440000Y-111969400D03*
D31*
X130440000Y-110369400D03*
X130440000Y-111169400D03*
D30*
X130440000Y-109569400D03*
D31*
X128640000Y-111169400D03*
D30*
X128640000Y-111969400D03*
D31*
X128640000Y-110369400D03*
D30*
X128640000Y-109569400D03*
X130440000Y-115550800D03*
D31*
X130440000Y-113950800D03*
X130440000Y-114750800D03*
D30*
X130440000Y-113150800D03*
D31*
X128640000Y-114750800D03*
D30*
X128640000Y-115550800D03*
D31*
X128640000Y-113950800D03*
D30*
X128640000Y-113150800D03*
D32*
X196030000Y-97248980D03*
X195130000Y-97248980D03*
D33*
X193309280Y-97751900D03*
X191409280Y-97751900D03*
X210505000Y-90805000D03*
X212405000Y-90805000D03*
D34*
X203766420Y-94965560D03*
X203766420Y-93065560D03*
X218081860Y-108496140D03*
X218081860Y-106596140D03*
X218084400Y-111945460D03*
X218084400Y-110045460D03*
D33*
X215925360Y-104465120D03*
X217825360Y-104465120D03*
X205359040Y-86588600D03*
X203459040Y-86588600D03*
X210505000Y-88696800D03*
X212405000Y-88696800D03*
X212432860Y-104465120D03*
X214332860Y-104465120D03*
D35*
X205536800Y-99412640D03*
X205536800Y-100312640D03*
D33*
X210505000Y-86588600D03*
X212405000Y-86588600D03*
D34*
X205536800Y-96352320D03*
X205536800Y-98252320D03*
D33*
X189995130Y-126926338D03*
X188095130Y-126926338D03*
X189995130Y-129034538D03*
X188095130Y-129034538D03*
X96253260Y-130479800D03*
X98153260Y-130479800D03*
X90251240Y-110380780D03*
X92151240Y-110380780D03*
X128590000Y-103098600D03*
X130490000Y-103098600D03*
X96253260Y-128371600D03*
X98153260Y-128371600D03*
X90251240Y-108272580D03*
X92151240Y-108272580D03*
X128590000Y-100990400D03*
X130490000Y-100990400D03*
X96253260Y-126263400D03*
X98153260Y-126263400D03*
X90251240Y-114597180D03*
X92151240Y-114597180D03*
X128590000Y-98882200D03*
X130490000Y-98882200D03*
X96253260Y-124155200D03*
X98153260Y-124155200D03*
X90251240Y-112488980D03*
X92151240Y-112488980D03*
X128590000Y-96774000D03*
X130490000Y-96774000D03*
X90251240Y-106164380D03*
X92151240Y-106164380D03*
X90251240Y-118813580D03*
X92151240Y-118813580D03*
X128590000Y-107315000D03*
X130490000Y-107315000D03*
X90251240Y-104056180D03*
X92151240Y-104056180D03*
X90251240Y-116705380D03*
X92151240Y-116705380D03*
X128590000Y-105206800D03*
X130490000Y-105206800D03*
X128590000Y-90449400D03*
X130490000Y-90449400D03*
X90251240Y-123029980D03*
X92151240Y-123029980D03*
X128590000Y-94665800D03*
X130490000Y-94665800D03*
X128590000Y-88341200D03*
X130490000Y-88341200D03*
X90251240Y-120921780D03*
X92151240Y-120921780D03*
X128590000Y-92557600D03*
X130490000Y-92557600D03*
D34*
X181335680Y-101854040D03*
X181335680Y-99954040D03*
D33*
X177612000Y-116629180D03*
X179512000Y-116629180D03*
D34*
X182285640Y-121074140D03*
X182285640Y-122974140D03*
D32*
X107371300Y-109918500D03*
X106471300Y-109918500D03*
X107371300Y-111696500D03*
X106471300Y-111696500D03*
X110863800Y-111086900D03*
X109963800Y-111086900D03*
X107371300Y-131508500D03*
X106471300Y-131508500D03*
X110863800Y-130911600D03*
X109963800Y-130911600D03*
D35*
X76931520Y-103037220D03*
X76931520Y-103937220D03*
D32*
X75336820Y-101772720D03*
X74436820Y-101772720D03*
D35*
X68714620Y-105283420D03*
X68714620Y-104383420D03*
D36*
X215316920Y-100797400D03*
X215316920Y-98897400D03*
X212916920Y-99847400D03*
D37*
X170615000Y-101688900D03*
X170115000Y-101688900D03*
X171115000Y-101688900D03*
X171615000Y-101688900D03*
X173615000Y-101688900D03*
X173115000Y-101688900D03*
X172115000Y-101688900D03*
X172615000Y-101688900D03*
X162615000Y-101688900D03*
X162115000Y-101688900D03*
X163115000Y-101688900D03*
X163615000Y-101688900D03*
X165615000Y-101688900D03*
X165115000Y-101688900D03*
X164115000Y-101688900D03*
X164615000Y-101688900D03*
X168615000Y-101688900D03*
X168115000Y-101688900D03*
X169115000Y-101688900D03*
X169615000Y-101688900D03*
X167615000Y-101688900D03*
X167115000Y-101688900D03*
X166115000Y-101688900D03*
X166615000Y-101688900D03*
X158615000Y-101688900D03*
X158115000Y-101688900D03*
X159115000Y-101688900D03*
X159615000Y-101688900D03*
X161615000Y-101688900D03*
X161115000Y-101688900D03*
X160115000Y-101688900D03*
X160615000Y-101688900D03*
X156615000Y-101688900D03*
X156115000Y-101688900D03*
X157115000Y-101688900D03*
X157615000Y-101688900D03*
X155615000Y-101688900D03*
X155115000Y-101688900D03*
X154115000Y-101688900D03*
X154615000Y-101688900D03*
D38*
X175715000Y-104388900D03*
X152015000Y-104388900D03*
D39*
X139450600Y-76938000D03*
X138800600Y-76938000D03*
X138150600Y-76938000D03*
X137500600Y-76938000D03*
X136850600Y-76938000D03*
D40*
X139110600Y-73818000D03*
X137190600Y-73818000D03*
D39*
X183926000Y-76938000D03*
X183276000Y-76938000D03*
X182626000Y-76938000D03*
X181976000Y-76938000D03*
X181326000Y-76938000D03*
D40*
X183586000Y-73818000D03*
X181666000Y-73818000D03*
D41*
X186750960Y-119312820D03*
X186750960Y-116312820D03*
D42*
X67279520Y-102878620D03*
X67279520Y-99828620D03*
X78188820Y-105467420D03*
X78188820Y-108517420D03*
D43*
X179428720Y-92676980D03*
X183628720Y-92676980D03*
D44*
X183921400Y-86961400D03*
X183921400Y-82761400D03*
D45*
X181114700Y-110604300D03*
X181114700Y-114668300D03*
D46*
X185204100Y-110618000D03*
X185204100Y-113918000D03*
D47*
X196580000Y-99885500D03*
X194580000Y-99885500D03*
D48*
X212163660Y-115223200D03*
X212163660Y-116323200D03*
D49*
X214330280Y-114773200D03*
X214330280Y-116773200D03*
D50*
X210457780Y-103916480D03*
X207407780Y-103916480D03*
D51*
X208812700Y-97294700D03*
X210312700Y-97294700D03*
D52*
X179112000Y-118595140D03*
X178012000Y-118595140D03*
D49*
X184183020Y-121024140D03*
X184183020Y-123024140D03*
D48*
X181119780Y-106610060D03*
X181119780Y-107710060D03*
X182448200Y-106610060D03*
X182448200Y-107710060D03*
D53*
X175615600Y-134212900D03*
X175615600Y-135712900D03*
D54*
X131154300Y-85755480D03*
X128154300Y-85755480D03*
X131154300Y-83278980D03*
X128154300Y-83278980D03*
X128154300Y-80035400D03*
X131154300Y-80035400D03*
X128154300Y-77470000D03*
X131154300Y-77470000D03*
D52*
X127948600Y-126949200D03*
X129048600Y-126949200D03*
D54*
X128154300Y-74942700D03*
X131154300Y-74942700D03*
D52*
X127948600Y-125285500D03*
X129048600Y-125285500D03*
X73770400Y-91706700D03*
X74870400Y-91706700D03*
X66450300Y-90271600D03*
X65350300Y-90271600D03*
D51*
X73570400Y-90144600D03*
X75070400Y-90144600D03*
D47*
X71042020Y-101772720D03*
X73042020Y-101772720D03*
X74439020Y-106611420D03*
X72439020Y-106611420D03*
D52*
X74438420Y-100604320D03*
X75538420Y-100604320D03*
D47*
X71042020Y-99880420D03*
X73042020Y-99880420D03*
X74439020Y-108503720D03*
X72439020Y-108503720D03*
D51*
X103378700Y-138696700D03*
X101878700Y-138696700D03*
D55*
X180213000Y-86361400D03*
X180213000Y-83361400D03*
D56*
X192572220Y-119915940D03*
D57*
X194972220Y-125465940D03*
X196972220Y-125465940D03*
D56*
X199372220Y-119915940D03*
D58*
X202241920Y-109400340D03*
X206941920Y-109400340D03*
D11*
X201927460Y-123489720D03*
M02*
